<svg xmlns="http://www.w3.org/2000/svg" viewBox="0 0 546.47 97.07"><title>Wheels-Logo-with-Icon</title><g id="Layer_2" data-name="Layer 2"><g id="Layer_1-2" data-name="Layer 1"><path d="M424.52,75V46.64a4.82,4.82,0,0,0-4.81-4.81H384V26.16h33a4.78,4.78,0,0,0,4.59-3.4L424.18,15h-47.4a4.82,4.82,0,0,0-4.81,4.8v28a4.81,4.81,0,0,0,4.81,4.81h35.75V68.8h-33a4.79,4.79,0,0,0-4.6,3.39l-2.56,7.57h47.39A4.82,4.82,0,0,0,424.52,75Z"/><path d="M323.73,15h-7.18V75a4.82,4.82,0,0,0,4.81,4.81h37.4a4.78,4.78,0,0,0,4.59-3.4l2.56-7.56H328.53v-49A4.81,4.81,0,0,0,323.73,15Z"/><path d="M82.13,18.53,72.3,69.25,55,19.37a7.13,7.13,0,0,0-13.73,0L24.1,69.17,13.44,18.41A4.82,4.82,0,0,0,8.83,15H0L13.61,73.19a10.35,10.35,0,0,0,9.9,7.38h1.58a10.33,10.33,0,0,0,10-7.69l13.15-37.4L62,73a10.34,10.34,0,0,0,19.89.19L95.52,15H86.77A4.81,4.81,0,0,0,82.13,18.53Z"/><path d="M192.27,15a4.82,4.82,0,0,0-4.81,4.81V75a4.82,4.82,0,0,0,4.81,4.81H232a4.79,4.79,0,0,0,4.6-3.4c.49-1.6,1-3.19,1.59-4.74.35-1,.69-1.94,1-2.82H199.44V52.6h22.67a4.77,4.77,0,0,0,4.59-3.39l2.5-7.38H199.44V26.16h32.43a4.79,4.79,0,0,0,4.6-3.39L239.1,15Z"/><path d="M302.34,71.62c.36-1,.69-1.94,1-2.82H263.64V52.6h22.67a4.77,4.77,0,0,0,4.59-3.39l2.51-7.38H263.64V26.16h32.43a4.79,4.79,0,0,0,4.6-3.39L303.3,15H256.47a4.82,4.82,0,0,0-4.81,4.81V75a4.82,4.82,0,0,0,4.81,4.81h39.68a4.79,4.79,0,0,0,4.6-3.4C301.24,74.76,301.8,73.17,302.34,71.62Z"/><path d="M163.57,79.76h8V15h-12.8V41.83H121.14v-22a4.81,4.81,0,0,0-4.8-4.81h-8l0,64.78h12.77l0-26.34h37.61V75A4.82,4.82,0,0,0,163.57,79.76Z"/><path d="M508.81,0a37.66,37.66,0,1,0,37.66,37.66A37.7,37.7,0,0,0,508.81,0Zm0,63.57a25.92,25.92,0,1,1,25.92-25.91A25.94,25.94,0,0,1,508.81,63.57Z"/><path d="M533,85.74H475.38v2.08a9.26,9.26,0,0,0,9.25,9.25h57.62V95A9.26,9.26,0,0,0,533,85.74Z"/></g></g></svg>